<svg width="115" height="115" viewBox="0 0 115 115" fill="none" xmlns="http://www.w3.org/2000/svg">
  <g clip-path="url(#clip0)">
    <path
      d="M114.992 94.6646L113.685 67.2143C113.428 61.809 112.43 56.4629 110.717 51.324L107.428 41.456C106.05 37.3233 102.76 34.0336 98.6277 32.6561L95.1532 31.4976C95.7089 30.0248 96.0272 28.4367 96.0272 26.7716C96.0272 19.3586 89.9965 13.3278 82.5835 13.3278C75.1704 13.3278 69.1397 19.3586 69.1397 26.7716C69.1397 32.5704 72.837 37.5089 77.9924 39.3907C75.1044 42.6141 71.3757 44.8777 67.1637 45.9309L62.081 47.2025C59.4522 47.8589 57.6162 50.2099 57.6162 52.92C57.6162 54.6295 58.3571 56.2519 59.6484 57.3725C60.9397 58.4922 62.6521 58.9978 64.3429 58.7529L79.7288 56.5558C83.1901 56.0644 86.5988 57.6803 88.3993 60.6828C89.5293 62.5659 89.9026 64.7875 89.4496 66.9368L83.8352 93.604C83.4179 95.5865 83.911 97.6251 85.1875 99.1978C86.4639 100.77 88.3571 101.673 90.3828 101.673C93.4588 101.673 96.1276 99.5889 96.873 96.6051L100.646 81.5156L101.513 95.4002C101.733 98.9176 104.667 101.673 108.31 101.673C110.157 101.673 111.876 100.937 113.152 99.5994C114.426 98.2618 115.079 96.509 114.992 94.6646ZM72.9805 26.7714C72.9805 21.4767 77.2885 17.1687 82.5832 17.1687C87.8779 17.1687 92.1859 21.4767 92.1859 26.7714C92.1859 32.066 87.8779 36.3741 82.5832 36.3741C77.2885 36.3741 72.9805 32.066 72.9805 26.7714ZM110.371 96.9488C109.828 97.518 109.097 97.8313 108.19 97.8313C106.689 97.8313 105.44 96.6581 105.346 95.1596L103.705 68.9032C103.646 67.9578 102.906 67.1975 101.964 67.1111C101.02 67.0127 100.155 67.639 99.9252 68.557L93.1462 95.6726C92.8283 96.9443 91.6926 97.8313 90.3825 97.8313C89.5197 97.8313 88.7134 97.4467 88.1694 96.7772C87.6263 96.1076 87.4163 95.2393 87.5937 94.3952L93.2081 67.7281C93.8618 64.6278 93.3234 61.4234 91.6926 58.7059C89.0931 54.3743 84.1857 52.0281 79.1846 52.7539L63.7987 54.951C63.2069 55.0335 62.6209 54.8657 62.164 54.4699C61.7084 54.0742 61.457 53.5238 61.457 52.9197C61.457 51.9763 62.0956 51.1577 63.012 50.9289L68.0956 49.6572C73.2412 48.3707 77.7855 45.5619 81.2365 41.5362L82.3777 40.2046C82.4469 40.2055 82.5136 40.2149 82.583 40.2149C86.9337 40.2149 90.7967 38.1285 93.2554 34.9137L97.412 36.2996C100.404 37.2964 102.786 39.6783 103.783 42.6708L107.073 52.5388C108.674 57.343 109.608 62.3422 109.848 67.3958L111.155 94.8461C111.193 95.6323 110.914 96.3787 110.371 96.9488Z"
      fill="black"/>
    <path
      d="M45.1327 55.5795H25.571L53.2527 26.1674L50.4564 23.534L21.9311 53.8423L13.3454 28.0843C13.0837 27.3002 12.3503 26.7714 11.5232 26.7714H0V30.6124H10.139L19.3038 58.1076C19.5655 58.8917 20.2989 59.4205 21.1259 59.4205H45.1327C50.648 59.4205 55.4431 62.5392 57.8625 67.1027H51.8546C50.794 67.1027 49.934 67.9626 49.934 69.0232V76.7054C49.934 77.766 50.794 78.6259 51.8546 78.6259H59.5367V86.3081H47.8601C46.9233 79.8039 41.3288 74.7849 34.5697 74.7849C27.8106 74.7849 22.2161 79.8039 21.2793 86.3081H0V90.1492H21.2793C22.2161 96.6533 27.8106 101.672 34.5697 101.672C41.3288 101.672 46.9233 96.6533 47.8601 90.1492H61.4573C62.5179 90.1492 63.3778 89.2893 63.3778 88.2286V73.8246C63.3778 63.7643 55.193 55.5795 45.1327 55.5795ZM34.5697 97.8313C29.275 97.8313 24.967 93.5233 24.967 88.2286C24.967 82.9339 29.275 78.6259 34.5697 78.6259C39.8644 78.6259 44.1724 82.9339 44.1724 88.2286C44.1724 93.5233 39.8644 97.8313 34.5697 97.8313ZM59.5367 74.7849H53.7751V70.9438H59.2465C59.4364 71.8748 59.5367 72.8381 59.5367 73.8246V74.7849Z"
      fill="black"/>
    <path
      d="M11.4426 56.9486L5.68096 37.7432C5.43705 36.9301 4.68876 36.3741 3.84108 36.3741H0V40.2151H2.41196L7.02101 55.5795H0V59.4206H9.6027C10.2093 59.4206 10.7814 59.1337 11.1435 58.6468C11.5064 58.1592 11.6171 57.53 11.4426 56.9486Z"
      fill="black"/>
    <path d="M7.68216 65.1822H0V69.0232H7.68216V65.1822Z" fill="black"/>
    <path d="M53.7751 36.3741H49.934V40.2151H53.7751V36.3741Z" fill="black"/>
    <path d="M57.6162 40.2151H53.7751V44.0562H57.6162V40.2151Z" fill="black"/>
    <path d="M46.093 47.8973H42.2519V51.7384H46.093V47.8973Z" fill="black"/>
    <path d="M63.3778 26.7714H59.5367V30.6124H63.3778V26.7714Z" fill="black"/>
    <path d="M72.9805 65.1822H69.1394V69.0232H72.9805V65.1822Z" fill="black"/>
    <path d="M42.2518 21.0097H38.4108V24.8508H42.2518V21.0097Z" fill="black"/>
  </g>
  <defs>
    <clipPath id="clip0">
      <rect width="115" height="115" fill="white"/>
    </clipPath>
  </defs>
</svg>
