<svg width="156" height="156" viewBox="0 0 156 156" fill="none" xmlns="http://www.w3.org/2000/svg">
<path d="M145.079 70.4934L141.04 54.3343C142.144 54.0997 142.973 53.1198 142.973 51.9459V49.3405C142.973 43.6837 138.37 39.0817 132.714 39.0817H114.313V33.7076C114.313 30.9239 112.049 28.6595 109.265 28.6595H15.4696C12.686 28.6595 10.4215 30.9239 10.4215 33.7076V78C10.4215 79.3488 11.5151 80.4427 12.8642 80.4427C14.2131 80.4427 15.3069 79.3491 15.3069 78V33.7076C15.3069 33.6177 15.3797 33.5449 15.4696 33.5449H109.265C109.355 33.5449 109.428 33.6177 109.428 33.7076V78.0006C109.428 79.3495 110.521 80.4433 111.87 80.4433C113.219 80.4433 114.313 79.3498 114.313 78.0006V75.2316H143.127C143.129 75.2316 143.131 75.2322 143.133 75.2322C143.136 75.2322 143.138 75.2319 143.14 75.2319C146.686 75.2343 149.696 77.5615 150.73 80.7684H143.135C141.786 80.7684 140.693 81.8619 140.693 83.2111V88.4218C140.693 92.6421 144.126 96.0753 148.346 96.0753H151.114V106.823H144.727C142.629 100.764 136.87 96.4007 130.108 96.4007C123.345 96.4007 117.586 100.764 115.488 106.823H114.312V88.4215C114.312 87.0727 113.219 85.9788 111.87 85.9788C110.521 85.9788 109.427 87.0724 109.427 88.4215V106.822H58.7489C56.6509 100.764 50.892 96.4001 44.1294 96.4001C37.3669 96.4001 31.6077 100.764 29.5099 106.822H15.4696C15.3797 106.822 15.3069 106.749 15.3069 106.659V101.285H25.8914C27.2403 101.285 28.3341 100.192 28.3341 98.8428C28.3341 97.4936 27.2406 96.4001 25.8914 96.4001H2.44268C1.09383 96.4001 0 97.4936 0 98.8428C0 100.192 1.09352 101.285 2.44268 101.285H10.4218V106.659C10.4218 109.443 12.6863 111.707 15.4699 111.707H28.6641C28.6635 111.762 28.6598 111.815 28.6598 111.87C28.6598 120.4 35.5997 127.34 44.1294 127.34C52.6591 127.34 59.599 120.4 59.599 111.87C59.599 111.815 59.5954 111.762 59.5947 111.707H114.643C114.642 111.762 114.638 111.815 114.638 111.87C114.638 120.4 121.578 127.34 130.108 127.34C138.638 127.34 145.578 120.4 145.578 111.87C145.578 111.815 145.574 111.762 145.573 111.707H153.557C154.906 111.707 156 110.614 156 109.265V83.2105C156 76.7779 151.254 71.4334 145.079 70.4934ZM114.313 43.9667H132.714C135.677 43.9667 138.088 46.3774 138.088 49.3405V49.5032H114.313V43.9667ZM114.313 70.3465V54.3882H136.018L140.007 70.3465H114.313ZM44.1294 122.455C38.2931 122.455 33.5449 117.707 33.5449 111.871C33.5449 106.034 38.2931 101.286 44.1294 101.286C49.9657 101.286 54.714 106.034 54.714 111.871C54.714 117.707 49.9657 122.455 44.1294 122.455ZM130.109 122.455C124.272 122.455 119.524 117.707 119.524 111.871C119.524 106.034 124.272 101.286 130.109 101.286C135.945 101.286 140.693 106.034 140.693 111.871C140.693 117.707 135.945 122.455 130.109 122.455ZM151.115 91.1899H148.347C146.82 91.1899 145.578 89.948 145.578 88.4215V85.6531H151.115V91.1899H151.115Z" fill="black"/>
<path d="M44.1294 106.823C41.3458 106.823 39.0814 109.087 39.0814 111.871C39.0814 114.654 41.3458 116.919 44.1294 116.919C46.913 116.919 49.1775 114.654 49.1775 111.871C49.1775 109.087 46.913 106.823 44.1294 106.823Z" fill="black"/>
<path d="M130.109 106.823C127.325 106.823 125.061 109.087 125.061 111.871C125.061 114.654 127.325 116.919 130.109 116.919C132.892 116.919 135.157 114.654 135.157 111.871C135.157 109.087 132.892 106.823 130.109 106.823Z" fill="black"/>
<path d="M101.449 96.401H64.9728C63.6239 96.401 62.5301 97.4945 62.5301 98.8437C62.5301 100.193 63.6236 101.286 64.9728 101.286H101.449C102.798 101.286 103.891 100.193 103.891 98.8437C103.891 97.4945 102.798 96.401 101.449 96.401Z" fill="black"/>
<path d="M38.9186 85.9792H7.65344C6.30459 85.9792 5.21076 87.0727 5.21076 88.4218C5.21076 89.771 6.30429 90.8645 7.65344 90.8645H38.9186C40.2675 90.8645 41.3613 89.771 41.3613 88.4218C41.3613 87.0727 40.2675 85.9792 38.9186 85.9792Z" fill="black"/>
<path d="M84.9381 52.8237C83.9844 51.87 82.4375 51.87 81.4838 52.824L59.762 74.5455L48.4621 63.2455C47.5081 62.2915 45.9615 62.2915 45.0078 63.2455C44.0539 64.1995 44.0539 65.7458 45.0078 66.6998L58.0351 79.727C58.5119 80.2041 59.1371 80.4424 59.762 80.4424C60.3869 80.4424 61.0125 80.2041 61.489 79.727L84.9377 56.2782C85.8917 55.3239 85.8917 53.7776 84.9381 52.8237Z" fill="black"/>
</svg>
